SubjTestrun_81
version=1
nRows=64
nColumns=19
inDegrees=no
endheader
time	l_ground_force_vx	l_ground_force_vy	l_ground_force_vz	l_ground_force_px	l_ground_force_py	l_ground_force_pz	ground_force_vx	ground_force_vy	ground_force_vz	ground_force_px	ground_force_py	ground_force_pz	l_ground_torque_x	l_ground_torque_y	l_ground_torque_z	ground_torque_x	ground_torque_y	ground_torque_z	
0	95.0786471728343	801.712300113448	62.1934955843058	-0.0331696951920289	0	-0.0245102248776133	21.090917894697	239.503671179528	-27.5456494781466	-0.00545922425854725	0	0.0160120067339557	0	157.480306475875	0	0	0.16184514748444	0
0.01	96.5882835421536	684.388241624674	57.9101851490322	-0.0471871817071939	0	-0.0249957897650657	33.5460801573435	214.898495224814	-29.4725231025783	-0.0298162859787452	0	0.0136286608273408	0	154.951778925819	0	0	-1.0104338039104	0
0.02	90.4766931647885	564.478407165005	53.3977760002528	-0.0592477133260712	0	-0.0259014591575599	43.4463791946585	182.569222131866	-30.0958678645674	-0.0631013916434111	0	0.00791155801183794	0	142.895763756142	0	0	-1.84321176099949	0
0.03	78.9080491423744	446.978973096937	48.7256289836055	-0.0711282310721973	0	-0.0265887805517658	50.3148700309359	146.000144568061	-29.5395867394512	-0.104659746596165	0	-0.00147663139460557	0	124.154878776278	0	0	-1.96145280289826	0
0.04	64.4839754463906	337.516006336838	43.959275896505	-0.0864424968763813	0	-0.0258046897936893	53.8740431985035	109.273058205581	-27.9144357079711	-0.150001528149626	0	-0.0148144315774031	0	101.950714406316	0	0	-1.41206584608068	0
0.05	50.6441812855054	241.313835030926	38.6257234412571	-0.109996775130779	0	-0.0214847381604583	53.372740371628	76.4802079550516	-25.4822172220441	-0.186410974464974	0	-0.0311010547807107	0	80.4539954971077	0	0	-0.338361418579098	0
0.06	40.4218721334261	162.287088946437	32.4985697459759	-0.147058070680874	0	-0.0106242287990819	48.0400583259311	50.1482107947301	-22.3389731531142	-0.188316826814302	0	-0.0470905117903451	0	63.5015827655595	0	0	0.702564478031347	0
0.07	34.8243767400292	101.9047765967	25.9439984616187	-0.204923348332199	0	0.0106433619820971	38.7127879549242	30.7794234343874	-18.4865139127243	-0.11252084318124	0	-0.0560756338847652	0	52.5132997532748	0	0	1.24043328769425	0
0.08	32.8945151575473	59.0254542767263	19.5065146154597	-0.292261477190323	0	0.0472071571190323	0	0	0	0	0	0	0	46.4862264382319	0	0	0	0
0.09	31.302586076238	31.1071278780841	14.4203159093089	-0.405795243668463	0	0.104550072003013	0	0	0	0	0	0	0	41.5203528560569	0	0	0	0
0.1	0	0	0	0	0	0	0	0	0	0	0	0	0	0	0	0	0	0
0.11	0	0	0	0	0	0	0	0	0	0	0	0	0	0	0	0	0	0
0.12	0	0	0	0	0	0	0	0	0	0	0	0	0	0	0	0	0	0
0.13	0	0	0	0	0	0	0	0	0	0	0	0	0	0	0	0	0	0
0.14	0	0	0	0	0	0	0	0	0	0	0	0	0	0	0	0	0	0
0.15	0	0	0	0	0	0	0	0	0	0	0	0	0	0	0	0	0	0
0.16	0	0	0	0	0	0	0	0	0	0	0	0	0	0	0	0	0	0
0.17	0	0	0	0	0	0	0	0	0	0	0	0	0	0	0	0	0	0
0.18	0	0	0	0	0	0	0	0	0	0	0	0	0	0	0	0	0	0
0.19	0	0	0	0	0	0	0	0	0	0	0	0	0	0	0	0	0	0
0.2	0	0	0	0	0	0	0	0	0	0	0	0	0	0	0	0	0	0
0.21	0	0	0	0	0	0	-6.85775333699972	49.8226098065262	-14.5117011212361	0.146343548131922	0	0.0985799222588634	0	0	0	0	-1.96679175896865	0
0.22	0	0	0	0	0	0	-9.15968780734583	157.639136307045	-21.0227987033589	0.0962031370168136	0	0.104677976700332	0	0	0	0	-0.131075810114735	0
0.23	0	0	0	0	0	0	-7.28122838601872	333.350583979703	-28.143177682831	0.0901918371270507	0	0.106801457005187	0	0	0	0	3.74140803955331	0
0.24	0	0	0	0	0	0	-11.59073287573	555.785641421375	-32.9358896392361	0.0916358000255683	0	0.108117765191073	0	0	0	0	7.55965409589405	0
0.25	0	0	0	0	0	0	-29.1216822663548	763.762789030298	-31.7399248680248	0.0949815515933987	0	0.108826085717292	0	0	0	0	8.67632971121829	0
0.26	0	0	0	0	0	0	-58.2315177172287	918.835719787343	-29.239577375185	0.0975352232742963	0	0.109459607918581	0	0	0	0	7.0677752380057	0
0.27	0	0	0	0	0	0	-88.5872358975279	1034.53948770014	-33.4350950223022	0.0967831457915997	0	0.110291694709613	0	0	0	0	5.12073514300049	0
0.28	0	0	0	0	0	0	-105.878204146618	1134.84110996162	-44.5836365196911	0.09143690467825	0	0.111271814889279	0	0	0	0	4.8744702629971	0
0.29	0	0	0	0	0	0	-106.962621251354	1230.78968685669	-60.3800949278184	0.0815080108432644	0	0.112177839807876	0	0	0	0	6.8790633552745	0
0.3	0	0	0	0	0	0	-96.1045572726356	1315.94073272008	-75.3721934752052	0.0682456043447827	0	0.11277564467263	0	0	0	0	10.0975779738834	0
0.31	0	0	0	0	0	0	-78.8237657977912	1378.89935767793	-86.0795939781582	0.0529283490882984	0	0.113025120751245	0	0	0	0	13.4566582917079	0
0.32	0	0	0	0	0	0	-57.5675145424756	1410.9800951115	-91.3561242760952	0.0367273508252773	0	0.112891862257174	0	0	0	0	16.457144217912	0
0.33	0	0	0	0	0	0	-32.7126241985013	1410.53310545533	-91.83338081793	0.0203595518083242	0	0.112547941342545	0	0	0	0	19.0426919097221	0
0.34	0	0	0	0	0	0	-3.97881995768308	1380.33853842693	-89.0927480117287	0.00423430664803548	0	0.112085411235628	0	0	0	0	21.1955415084491	0
0.35	0	0	0	0	0	0	28.5190115812961	1325.6679516868	-84.1344547802017	-0.0114250453891537	0	0.111578063987805	0	0	0	0	23.0729537866963	0
0.36	0	0	0	0	0	0	62.3398566287231	1251.0371557716	-77.2521433154231	-0.0262901547968101	0	0.111014913755967	0	0	0	0	24.6831827237577	0
0.37	0	0	0	0	0	0	92.7510977667817	1157.74846038711	-68.514808831809	-0.0402129946093214	0	0.110319630973634	0	0	0	0	25.6837675262457	0
0.38	0	0	0	0	0	0	116.178755112559	1045.96368794127	-58.3533702054352	-0.053710532220471	0	0.109421725711134	0	0	0	0	25.7883822400835	0
0.39	0	0	0	0	0	0	131.585519097138	917.213269320694	-47.9879424166338	-0.0678546051390643	0	0.108182179492544	0	0	0	0	24.947411770409	0
0.4	0	0	0	0	0	0	139.004708235353	776.047546831269	-38.7397804685041	-0.0837999093667959	0	0.106467322896138	0	0	0	0	23.2360006516211	0
0.41	0	0	0	0	0	0	138.935372063464	629.700362001699	-31.3199972155557	-0.102580313666072	0	0.104042481097567	0	0	0	0	20.7664224837102	0
0.42	0	0	0	0	0	0	132.713193151951	487.484839544935	-25.7324061199822	-0.124993908776129	0	0.100639732106989	0	0	0	0	17.8835586879732	0
0.43	0	0	0	0	0	0	122.292170149993	358.953426018992	-21.6240523082998	-0.150964267512823	0	0.0958466899121743	0	0	0	0	15.1373978346055	0
0.44	0	0	0	0	0	0	109.022656112294	251.365728025118	-18.524381636735	-0.177634074134262	0	0.0894406098816456	0	0	0	0	12.7492019740309	0
0.45	0	0	0	0	0	0	93.5391412233976	167.70165638824	-16.116061429055	-0.197431934760831	0	0.0817045353628311	0	0	0	0	10.6148477963547	0
0.46	0	0	0	0	0	0	76.4499183259409	106.911397931553	-14.2594662945602	-0.197287824857942	0	0.0738360413139536	0	0	0	0	8.63090747434278	0
0.47	0	0	0	0	0	0	58.4728745022028	65.2266581145982	-12.6860531842885	-0.158125492119063	0	0.0677014009700711	0	0	0	0	6.67796305259113	0
0.48	0	0	0	0	0	0	40.347161163213	37.9221962680729	-11.1519192226247	-0.057183180064752	0	0.0647165789910026	0	0	0	0	4.43700266764624	0
0.49	0	0	0	0	0	0	23.734738669659	20.3666009027395	-9.8067950529478	0.124238903113272	0	0.0606855134154593	0	0	0	0	1.88162977219874	0
0.5	0	0	0	0	0	0	0	0	0	0	0	0	0	0	0	0	0	0
0.51	0	0	0	0	0	0	0	0	0	0	0	0	0	0	0	0	0	0
0.52	0	0	0	0	0	0	0	0	0	0	0	0	0	0	0	0	0	0
0.53	0	0	0	0	0	0	0	0	0	0	0	0	0	0	0	0	0	0
0.54	0	0	0	0	0	0	0	0	0	0	0	0	0	0	0	0	0	0
0.55	0	0	0	0	0	0	0	0	0	0	0	0	0	0	0	0	0	0
0.56	0	0	0	0	0	0	0	0	0	0	0	0	0	0	0	0	0	0
0.57	0	0	0	0	0	0	0	0	0	0	0	0	0	0	0	0	0	0
0.58	-15.5988194044812	32.6421644347824	15.8208419701414	0.0469357205228819	0	0.109362056073178	0	0	0	0	0	0	0	-19.4743750652704	0	0	0	0
0.59	-15.0823785071217	131.810566904205	19.4399360525055	0.135063351973456	0	-0.00243731044866758	0	0	0	0	0	0	0	-16.7206359587398	0	0	0	0
0.6	-10.8175462238092	290.911497381174	24.7863201539928	0.152285132031957	0	-0.0222784914302738	0	0	0	0	0	0	0	-6.63591119391593	0	0	0	0
0.61	-9.62474590779551	490.564633742245	31.7509398601222	0.158413277318155	0	-0.0284150586471075	-6.95165392541998	21.0755260079225	-10.1782736477568	0.175433681363886	0	-0.0417485744383496	0	1.57425271226177	0	0	-1.90115140819375	0
0.62	-23.5192220343476	675.969765712103	38.946256330681	0.160975434082536	0	-0.0301737284540787	-16.8374155880439	31.9068897777785	-10.5875062387177	0.0624901031554196	0	-0.0497727706443176	0	-9.17710437010182	0	0	-2.03712770321383	0
0.63	-49.2976131407985	808.554550394147	44.7891489550465	0.161637713237602	0	-0.0300758479575081	-25.396202806438	42.3375325090182	-11.1740287419519	0.0342585592568543	0	-0.0536442018858113	0	-36.5097458934463	0	0	-1.77936110113987	0
